HIERARCHY
ROOT Hips
{
	OFFSET -405.673950 -568.352600 88.993477
	CHANNELS 6 Xposition Yposition Zposition Zrotation Yrotation Xrotation
	JOINT Spine
	{
		OFFSET 0.000000 2.080078 8.814247
		CHANNELS 6 Xposition Yposition Zposition Zrotation Yrotation Xrotation
		JOINT Spine1
		{
			OFFSET 0.000000 0.000000 8.844139
			CHANNELS 6 Xposition Yposition Zposition Zrotation Yrotation Xrotation
			JOINT Spine2
			{
				OFFSET 0.000000 0.000000 11.682266
				CHANNELS 6 Xposition Yposition Zposition Zrotation Yrotation Xrotation
				JOINT Spine3
				{
					OFFSET 0.000000 0.000000 11.746696
					CHANNELS 6 Xposition Yposition Zposition Zrotation Yrotation Xrotation
					JOINT Neck
					{
						OFFSET 0.000000 0.000000 17.658264
						CHANNELS 6 Xposition Yposition Zposition Zrotation Yrotation Xrotation
						JOINT Neck1
						{
							OFFSET 0.000000 0.000000 5.101517
							CHANNELS 6 Xposition Yposition Zposition Zrotation Yrotation Xrotation
							JOINT Head
							{
								OFFSET 0.000000 0.000000 5.101517
								CHANNELS 6 Xposition Yposition Zposition Zrotation Yrotation Xrotation
								JOINT HeadEnd
								{
									OFFSET 0.000000 0.000000 11.655090
									CHANNELS 6 Xposition Yposition Zposition Zrotation Yrotation Xrotation
									End Site
									{
										OFFSET 0.000000 0.000000 0.100006
									}
								}
							}
						}
					}
					JOINT RightShoulder
					{
						OFFSET -2.625397 0.000000 11.175217
						CHANNELS 6 Xposition Yposition Zposition Zrotation Yrotation Xrotation
						JOINT RightArm
						{
							OFFSET 0.000000 0.000000 10.434708
							CHANNELS 6 Xposition Yposition Zposition Zrotation Yrotation Xrotation
							JOINT RightForeArm
							{
								OFFSET 0.000000 0.000000 29.628418
								CHANNELS 6 Xposition Yposition Zposition Zrotation Yrotation Xrotation
								JOINT RightHand
								{
									OFFSET 0.000000 0.000000 22.857605
									CHANNELS 6 Xposition Yposition Zposition Zrotation Yrotation Xrotation
									JOINT RightHandThumb1
									{
										OFFSET -2.867310 -2.944275 3.959564
										CHANNELS 6 Xposition Yposition Zposition Zrotation Yrotation Xrotation
										JOINT RightHandThumb2
										{
											OFFSET 0.000000 0.000000 3.350403
											CHANNELS 6 Xposition Yposition Zposition Zrotation Yrotation Xrotation
											JOINT RightHandThumb3
											{
												OFFSET 0.000000 0.000000 3.756516
												CHANNELS 6 Xposition Yposition Zposition Zrotation Yrotation Xrotation
												JOINT RightHandThumb4
												{
													OFFSET 0.000000 0.000000 3.147339
													CHANNELS 6 Xposition Yposition Zposition Zrotation Yrotation Xrotation
													End Site
													{
														OFFSET 0.000000 0.000000 0.100006
													}
												}
											}
										}
									}
									JOINT RightHandIndex1
									{
										OFFSET -0.086761 -2.345276 10.030899
										CHANNELS 6 Xposition Yposition Zposition Zrotation Yrotation Xrotation
										JOINT RightHandIndex2
										{
											OFFSET 0.000000 0.000000 4.061096
											CHANNELS 6 Xposition Yposition Zposition Zrotation Yrotation Xrotation
											JOINT RightHandIndex3
											{
												OFFSET 0.000000 0.000000 3.248871
												CHANNELS 6 Xposition Yposition Zposition Zrotation Yrotation Xrotation
												JOINT RightHandIndex4
												{
													OFFSET 0.000000 0.000000 2.639709
													CHANNELS 6 Xposition Yposition Zposition Zrotation Yrotation Xrotation
													End Site
													{
														OFFSET 0.000000 0.000000 0.100006
													}
												}
											}
										}
									}
									JOINT RightHandMiddle1
									{
										OFFSET 0.104095 -0.006775 9.502945
										CHANNELS 6 Xposition Yposition Zposition Zrotation Yrotation Xrotation
										JOINT RightHandMiddle2
										{
											OFFSET 0.000000 0.000000 4.568726
											CHANNELS 6 Xposition Yposition Zposition Zrotation Yrotation Xrotation
											JOINT RightHandMiddle3
											{
												OFFSET 0.000000 0.000000 3.654984
												CHANNELS 6 Xposition Yposition Zposition Zrotation Yrotation Xrotation
												JOINT RightHandMiddle4
												{
													OFFSET 0.000000 0.000000 2.741241
													CHANNELS 6 Xposition Yposition Zposition Zrotation Yrotation Xrotation
													End Site
													{
														OFFSET 0.000000 0.000000 0.100006
													}
												}
											}
										}
									}
									JOINT RightHandRing1
									{
										OFFSET 0.086761 2.267456 8.921707
										CHANNELS 6 Xposition Yposition Zposition Zrotation Yrotation Xrotation
										JOINT RightHandRing2
										{
											OFFSET 0.000000 0.000000 4.061096
											CHANNELS 6 Xposition Yposition Zposition Zrotation Yrotation Xrotation
											JOINT RightHandRing3
											{
												OFFSET 0.000000 0.000000 3.654984
												CHANNELS 6 Xposition Yposition Zposition Zrotation Yrotation Xrotation
												JOINT RightHandRing4
												{
													OFFSET 0.000000 0.000000 2.741241
													CHANNELS 6 Xposition Yposition Zposition Zrotation Yrotation Xrotation
													End Site
													{
														OFFSET 0.000000 0.000000 0.100006
													}
												}
											}
										}
									}
									JOINT RightHandPinky1
									{
										OFFSET -0.173492 4.467224 7.976990
										CHANNELS 6 Xposition Yposition Zposition Zrotation Yrotation Xrotation
										JOINT RightHandPinky2
										{
											OFFSET 0.000000 0.000000 3.350403
											CHANNELS 6 Xposition Yposition Zposition Zrotation Yrotation Xrotation
											JOINT RightHandPinky3
											{
												OFFSET 0.000000 0.000000 2.842758
												CHANNELS 6 Xposition Yposition Zposition Zrotation Yrotation Xrotation
												JOINT RightHandPinky4
												{
													OFFSET 0.000000 0.000000 2.639709
													CHANNELS 6 Xposition Yposition Zposition Zrotation Yrotation Xrotation
													End Site
													{
														OFFSET 0.000000 0.000000 0.100006
													}
												}
											}
										}
									}
									JOINT RightForeArmEnd
									{
										OFFSET 0.000000 0.000000 0.000000
										CHANNELS 6 Xposition Yposition Zposition Zrotation Yrotation Xrotation
										End Site
										{
											OFFSET 0.000000 0.000000 0.100006
										}
									}
								}
								JOINT RightArmEnd
								{
									OFFSET 0.000000 0.000000 0.000000
									CHANNELS 6 Xposition Yposition Zposition Zrotation Yrotation Xrotation
									End Site
									{
										OFFSET 0.000000 0.000000 0.100006
									}
								}
							}
						}
					}
					JOINT LeftShoulder
					{
						OFFSET 2.625397 0.000000 11.175217
						CHANNELS 6 Xposition Yposition Zposition Zrotation Yrotation Xrotation
						JOINT LeftArm
						{
							OFFSET 0.000000 0.000000 10.813629
							CHANNELS 6 Xposition Yposition Zposition Zrotation Yrotation Xrotation
							JOINT LeftForeArm
							{
								OFFSET 0.000000 0.000000 28.724777
								CHANNELS 6 Xposition Yposition Zposition Zrotation Yrotation Xrotation
								JOINT LeftHand
								{
									OFFSET 0.644379 0.328857 25.716171
									CHANNELS 6 Xposition Yposition Zposition Zrotation Yrotation Xrotation
									JOINT LeftHandThumb1
									{
										OFFSET 2.867310 -2.944275 3.959564
										CHANNELS 6 Xposition Yposition Zposition Zrotation Yrotation Xrotation
										JOINT LeftHandThumb2
										{
											OFFSET 0.000000 0.000000 3.350403
											CHANNELS 6 Xposition Yposition Zposition Zrotation Yrotation Xrotation
											JOINT LeftHandThumb3
											{
												OFFSET 0.000000 0.000000 3.756516
												CHANNELS 6 Xposition Yposition Zposition Zrotation Yrotation Xrotation
												JOINT LeftHandThumb4
												{
													OFFSET 0.000000 0.000000 3.100006
													CHANNELS 6 Xposition Yposition Zposition Zrotation Yrotation Xrotation
													End Site
													{
														OFFSET 0.000000 0.000000 0.100006
													}
												}
											}
										}
									}
									JOINT LeftHandIndex1
									{
										OFFSET 0.086761 -2.345276 10.030899
										CHANNELS 6 Xposition Yposition Zposition Zrotation Yrotation Xrotation
										JOINT LeftHandIndex2
										{
											OFFSET 0.000000 0.000000 4.061096
											CHANNELS 6 Xposition Yposition Zposition Zrotation Yrotation Xrotation
											JOINT LeftHandIndex3
											{
												OFFSET 0.000000 0.000000 3.248871
												CHANNELS 6 Xposition Yposition Zposition Zrotation Yrotation Xrotation
												JOINT LeftHandIndex4
												{
													OFFSET 0.000000 0.000000 2.639709
													CHANNELS 6 Xposition Yposition Zposition Zrotation Yrotation Xrotation
													End Site
													{
														OFFSET 0.000000 0.000000 0.100006
													}
												}
											}
										}
									}
									JOINT LeftHandMiddle1
									{
										OFFSET -0.104095 -0.006775 9.502945
										CHANNELS 6 Xposition Yposition Zposition Zrotation Yrotation Xrotation
										JOINT LeftHandMiddle2
										{
											OFFSET 0.000000 0.000000 4.568726
											CHANNELS 6 Xposition Yposition Zposition Zrotation Yrotation Xrotation
											JOINT LeftHandMiddle3
											{
												OFFSET 0.000000 0.000000 3.654984
												CHANNELS 6 Xposition Yposition Zposition Zrotation Yrotation Xrotation
												JOINT LeftHandMiddle4
												{
													OFFSET 0.000000 0.000000 2.741241
													CHANNELS 6 Xposition Yposition Zposition Zrotation Yrotation Xrotation
													End Site
													{
														OFFSET 0.000000 0.000000 0.100006
													}
												}
											}
										}
									}
									JOINT LeftHandRing1
									{
										OFFSET -0.086761 2.267456 8.921707
										CHANNELS 6 Xposition Yposition Zposition Zrotation Yrotation Xrotation
										JOINT LeftHandRing2
										{
											OFFSET 0.000000 0.000000 4.061096
											CHANNELS 6 Xposition Yposition Zposition Zrotation Yrotation Xrotation
											JOINT LeftHandRing3
											{
												OFFSET 0.000000 0.000000 3.654984
												CHANNELS 6 Xposition Yposition Zposition Zrotation Yrotation Xrotation
												JOINT LeftHandRing4
												{
													OFFSET 0.000000 0.000000 2.741241
													CHANNELS 6 Xposition Yposition Zposition Zrotation Yrotation Xrotation
													End Site
													{
														OFFSET 0.000000 0.000000 0.100006
													}
												}
											}
										}
									}
									JOINT LeftHandPinky1
									{
										OFFSET 0.173492 4.467224 7.976990
										CHANNELS 6 Xposition Yposition Zposition Zrotation Yrotation Xrotation
										JOINT LeftHandPinky2
										{
											OFFSET 0.000000 0.000000 3.350403
											CHANNELS 6 Xposition Yposition Zposition Zrotation Yrotation Xrotation
											JOINT LeftHandPinky3
											{
												OFFSET 0.000000 0.000000 2.842758
												CHANNELS 6 Xposition Yposition Zposition Zrotation Yrotation Xrotation
												JOINT LeftHandPinky4
												{
													OFFSET 0.000000 0.000000 2.639709
													CHANNELS 6 Xposition Yposition Zposition Zrotation Yrotation Xrotation
													End Site
													{
														OFFSET 0.000000 0.000000 0.100006
													}
												}
											}
										}
									}
									JOINT LeftForeArmEnd
									{
										OFFSET 0.000000 0.000000 0.000000
										CHANNELS 6 Xposition Yposition Zposition Zrotation Yrotation Xrotation
										End Site
										{
											OFFSET 0.000000 0.000000 0.100006
										}
									}
								}
								JOINT LeftArmEnd
								{
									OFFSET 0.000000 0.000000 0.000000
									CHANNELS 6 Xposition Yposition Zposition Zrotation Yrotation Xrotation
									End Site
									{
										OFFSET 0.000000 0.000000 0.100006
									}
								}
							}
						}
					}
				}
			}
		}
	}
	JOINT RightUpLeg
	{
		OFFSET -11.289948 0.000000 0.000000
		CHANNELS 6 Xposition Yposition Zposition Zrotation Yrotation Xrotation
		JOINT RightLeg
		{
			OFFSET 0.000000 0.000000 -38.200329
			CHANNELS 6 Xposition Yposition Zposition Zrotation Yrotation Xrotation
			JOINT RightFoot
			{
				OFFSET 0.000000 0.000000 -39.900856
				CHANNELS 6 Xposition Yposition Zposition Zrotation Yrotation Xrotation
				JOINT RightToeBase
				{
					OFFSET 0.000000 -15.261658 0.000001
					CHANNELS 6 Xposition Yposition Zposition Zrotation Yrotation Xrotation
					JOINT RightToeBaseEnd
					{
						OFFSET 0.000000 -7.370728 0.000001
						CHANNELS 6 Xposition Yposition Zposition Zrotation Yrotation Xrotation
						End Site
						{
							OFFSET 0.000000 0.000000 0.100000
						}
					}
				}
				JOINT RightLegEnd
				{
					OFFSET 0.000000 0.000000 0.000000
					CHANNELS 6 Xposition Yposition Zposition Zrotation Yrotation Xrotation
					End Site
					{
						OFFSET 0.000000 0.000000 0.100000
					}
				}
			}
			JOINT RightUpLegEnd
			{
				OFFSET 0.000000 0.000000 0.000000
				CHANNELS 6 Xposition Yposition Zposition Zrotation Yrotation Xrotation
				End Site
				{
					OFFSET 0.000000 0.000000 0.099998
				}
			}
		}
	}
	JOINT LeftUpLeg
	{
		OFFSET 11.315674 0.000000 0.000000
		CHANNELS 6 Xposition Yposition Zposition Zrotation Yrotation Xrotation
		JOINT LeftLeg
		{
			OFFSET 0.000000 0.000000 -38.200329
			CHANNELS 6 Xposition Yposition Zposition Zrotation Yrotation Xrotation
			JOINT LeftFoot
			{
				OFFSET 0.000000 0.000000 -39.900856
				CHANNELS 6 Xposition Yposition Zposition Zrotation Yrotation Xrotation
				JOINT LeftToeBase
				{
					OFFSET 0.000000 -15.261658 0.000001
					CHANNELS 6 Xposition Yposition Zposition Zrotation Yrotation Xrotation
					JOINT LeftToeBaseEnd
					{
						OFFSET 0.000000 -7.539978 0.000001
						CHANNELS 6 Xposition Yposition Zposition Zrotation Yrotation Xrotation
						End Site
						{
							OFFSET 0.000000 0.000000 0.100000
						}
					}
				}
				JOINT LeftLegEnd
				{
					OFFSET 0.000000 0.000000 0.000000
					CHANNELS 6 Xposition Yposition Zposition Zrotation Yrotation Xrotation
					End Site
					{
						OFFSET 0.000000 0.000000 0.100000
					}
				}
			}
			JOINT LeftUpLegEnd
			{
				OFFSET 0.000000 0.000000 0.000000
				CHANNELS 6 Xposition Yposition Zposition Zrotation Yrotation Xrotation
				End Site
				{
					OFFSET 0.000000 0.000000 0.099998
				}
			}
		}
	}
}
MOTION
Frames: 2
Frame Time: 0.016667
5.812958 -20.378113 86.962837 0.737697 2.066600 -21.904038 -0.000004 2.080056 8.814241 -1.132935 -4.012602 10.561714 0.000007 -0.000029 8.844125 -0.640392 -1.445327 3.749929 0.000004 -0.000008 11.682289 4.567650 5.337901 16.247260 -0.000015 -0.000045 11.746717 1.075675 3.762398 7.396501 0.000001 -0.000008 17.658298 -8.239682 2.950553 15.428248 0.000017 0.000002 5.101559 -11.983588 4.446538 -1.266281 -0.000012 -0.000002 5.101547 -0.352563 -3.226817 -24.519571 0.000011 -0.000060 11.655055 -0.000000 -0.000002 0.000001 -2.625416 0.000012 11.175209 28.427690 -90.146756 -10.000860 -0.000031 0.000015 10.434715 -7.771569 -32.537741 30.149452 -0.000032 0.000004 29.628441 11.121018 0.797287 18.398643 -0.000008 0.000034 22.857582 35.536573 -22.293766 -8.325200 -2.867294 -2.944305 3.959618 33.330381 -11.337923 61.629521 0.000010 -0.000002 3.350407 -0.000002 0.000003 0.000006 -0.000005 0.000020 3.756520 0.000001 -0.000005 0.000007 -0.000005 -0.000000 3.147317 0.000000 -0.000000 -0.000001 -0.086769 -2.345269 10.030937 -17.490501 -34.507359 8.127933 0.000011 -0.000019 4.061115 -0.323969 -24.869690 3.735406 -0.000012 -0.000008 3.248909 -0.824059 -24.870879 3.735623 -0.000006 0.000005 2.639704 -0.000001 -0.000001 -0.000002 0.104134 -0.006767 9.502972 -10.706895 -32.644537 5.763813 0.000015 -0.000029 4.568746 0.230423 -23.417391 1.300601 -0.000017 0.000024 3.654977 -0.269556 -23.417401 1.300607 0.000009 -0.000005 2.741251 0.000002 -0.000002 0.000001 0.086753 2.267485 8.921719 -1.122883 -32.948798 4.820903 -0.000010 -0.000029 4.061111 -0.695332 -23.070420 -1.492736 -0.000014 -0.000005 3.654975 0.304864 -23.069985 -1.493060 0.000008 0.000012 2.741255 -0.000002 -0.000002 0.000001 -0.173515 4.467224 7.977048 9.162388 -31.794049 1.482062 -0.000023 -0.000001 3.350407 -1.179190 -21.338720 -4.354917 0.000005 -0.000021 2.842777 0.821072 -21.338073 -4.355350 0.000002 0.000003 2.639706 -0.000000 -0.000001 -0.000000 -0.000005 0.000007 0.000025 -0.000002 -0.000002 -0.000004 0.000036 0.000003 0.000013 -0.000001 0.000001 0.000001 2.625381 0.000011 11.175209 -3.578657 95.143955 -0.082855 0.000023 0.000012 10.813622 -2.598330 63.221973 -13.139933 0.000031 0.000053 28.724825 -23.885062 4.030485 33.573310 0.644402 0.328884 25.716171 -53.414764 21.128842 -18.076220 2.867233 -2.944275 3.959602 -33.321942 11.307549 61.556854 0.000006 -0.000022 3.350413 0.011032 -0.011004 -0.022264 -0.000061 0.000022 3.756509 0.011031 -0.010951 -0.022256 -0.000073 -0.000002 3.100013 -0.000000 0.000000 -0.000001 0.086756 -2.345313 10.030926 -1.577226 46.763027 -5.401781 -0.000032 -0.000056 4.061161 -1.065556 33.122524 -5.261199 -0.000035 0.000007 3.248905 -1.565562 33.122565 -5.261196 -0.000005 -0.000013 2.639718 0.000002 -0.000002 -0.000000 -0.104111 -0.006845 9.502976 5.025798 44.560359 2.079794 -0.000017 -0.000033 4.568787 -0.025916 31.590581 -1.848730 -0.000053 -0.000081 3.655036 -0.526525 31.590578 -1.849038 -0.000053 -0.000058 2.741260 -0.000000 -0.000003 0.000000 -0.086754 2.267372 8.921753 16.063036 43.493986 13.304604 -0.000065 -0.000056 4.061102 -0.389696 31.600871 2.156484 -0.000055 -0.000041 3.655025 0.610301 31.600925 2.156467 -0.000063 -0.000043 2.741254 -0.000001 -0.000003 -0.000000 0.173515 4.467176 7.976974 25.236285 37.868181 22.287570 -0.000027 -0.000004 3.350414 -0.379278 29.157477 6.225767 0.000004 -0.000057 2.842762 1.620714 29.157466 6.225772 0.000011 -0.000070 2.639725 0.000001 0.000001 -0.000001 0.000006 0.000036 -0.000013 0.000003 -0.000002 -0.000000 -0.000000 -0.000022 0.000016 0.000003 -0.000000 -0.000000 -11.289958 -0.000069 -0.000015 -10.586776 7.660206 21.531739 -0.000019 -0.000051 -38.200333 -1.303722 0.310945 13.412635 -0.000012 -0.000098 -39.900871 -13.755676 -5.140152 13.488293 0.000015 -15.261694 0.000023 2.073628 1.291927 -15.881568 -0.000039 -7.370722 0.000000 -0.000001 -0.000000 -0.000001 0.000004 -0.000083 -0.000002 0.000003 -0.000001 0.000000 -0.000020 -0.000058 -0.000001 -0.000001 0.000000 0.000001 11.315659 -0.000063 -0.000004 -7.918189 -8.148509 13.941631 -0.000000 -0.000027 -38.200344 1.328438 -0.552734 22.586946 0.000012 -0.000044 -39.900860 2.197549 5.781293 11.899953 -0.000040 -15.261680 -0.000006 -1.523260 -0.948292 -19.210897 -0.000031 -7.539917 0.000003 0.000000 -0.000000 -0.000000 -0.000002 -0.000059 -0.000001 -0.000000 0.000000 0.000001 0.000001 -0.000000 0.000004 -0.000000 -0.000001 -0.000000 
5.300629 -20.366516 86.941063 2.636678 2.239279 -21.612155 -0.000013 2.080073 8.814260 -1.156798 -4.352475 10.494073 -0.000013 -0.000018 8.844149 -0.526550 -1.545335 3.745658 0.000000 0.000015 11.682278 5.256643 5.504508 15.797594 0.000010 -0.000029 11.746691 1.357242 4.142158 7.361404 -0.000008 -0.000019 17.658283 -9.093226 2.105884 15.089471 0.000000 0.000002 5.101524 -12.944782 4.505665 -1.464339 -0.000004 0.000016 5.101543 -0.459617 -3.371795 -23.774913 -0.000006 -0.000002 11.655103 0.000000 0.000000 0.000000 -2.625398 -0.000033 11.175214 17.040171 -89.323288 2.023284 -0.000046 0.000000 10.434723 -26.764574 -25.067966 35.652396 0.000038 0.000004 29.628418 15.081135 0.646898 20.778668 -0.000107 -0.000016 22.857643 32.156158 -22.164997 -8.396370 -2.867287 -2.944336 3.959579 33.330357 -11.337944 61.629521 -0.000015 0.000019 3.350418 -0.000002 0.000002 0.000049 -0.000004 -0.000008 3.756520 0.000002 -0.000006 0.000014 -0.000003 -0.000001 3.147337 0.000000 -0.000000 -0.000000 -0.086777 -2.345266 10.030918 -19.301252 -38.870504 7.708499 -0.000008 -0.000001 4.061089 -0.557646 -27.866108 4.261351 -0.000007 -0.000028 3.248867 -1.057661 -27.866094 4.261380 0.000008 -0.000012 2.639719 0.000002 0.000000 0.000001 0.104118 -0.006792 9.502930 -11.965860 -36.669872 4.861753 -0.000008 -0.000018 4.568736 0.154704 -26.248443 1.480863 0.000004 -0.000031 3.655020 -0.345285 -26.248537 1.480821 0.000008 -0.000021 2.741237 0.000002 0.000003 0.000004 0.086755 2.267464 8.921717 -1.851488 -36.589952 2.665886 -0.000019 -0.000001 4.061093 -0.612598 -25.779145 -1.692748 -0.000006 0.000001 3.655008 0.387382 -25.779224 -1.692743 -0.000007 -0.000010 2.741226 0.000001 -0.000000 -0.000000 -0.173515 4.467216 7.976999 8.914002 -34.559982 -1.564117 0.000004 -0.000005 3.350426 -0.974426 -23.677834 -4.889692 -0.000010 -0.000004 2.842789 1.025252 -23.677604 -4.889144 -0.000002 0.000002 2.639705 0.000001 0.000001 0.000002 0.000000 -0.000001 0.000044 -0.000001 -0.000002 -0.000003 0.000014 0.000004 0.000019 -0.000000 0.000003 0.000001 2.625393 0.000024 11.175189 -3.979024 95.136387 -0.125754 -0.000008 -0.000010 10.813631 2.801105 62.240980 -5.972801 -0.000019 0.000092 28.724819 -23.948119 3.800908 33.749730 0.644402 0.328886 25.716141 -53.431979 20.505177 -17.702080 2.867264 -2.944275 3.959526 -33.322328 11.306523 61.557121 -0.000047 -0.000024 3.350401 0.011031 -0.011004 -0.022263 -0.000072 -0.000000 3.756514 0.011023 -0.010948 -0.022256 -0.000059 0.000007 3.099987 -0.000002 0.000000 -0.000001 0.086771 -2.345346 10.030937 -1.592247 46.614026 -5.555866 -0.000057 -0.000050 4.061146 -1.060209 33.034890 -5.245909 -0.000035 -0.000016 3.248882 -1.559932 33.034855 -5.245747 0.000005 -0.000011 2.639722 0.000001 0.000002 0.000000 -0.104088 -0.006832 9.502972 4.989484 44.409453 1.806202 -0.000067 -0.000070 4.568780 -0.025234 31.494357 -1.842496 -0.000053 -0.000035 3.655013 -0.524416 31.494323 -1.842175 -0.000019 -0.000061 2.741256 -0.000000 0.000001 0.000000 -0.086754 2.267384 8.921722 16.000171 43.362084 12.974515 -0.000027 -0.000092 4.061163 -0.393274 31.488214 2.149792 -0.000058 -0.000034 3.655035 0.604087 31.488128 2.147974 -0.000030 -0.000070 2.741233 0.000002 -0.000005 0.000002 0.173546 4.467211 7.976974 25.184941 37.781034 21.964346 -0.000031 -0.000022 3.350414 -0.383381 29.048777 6.202486 -0.000035 -0.000051 2.842785 1.615176 29.048552 6.201782 -0.000039 -0.000052 2.639718 -0.000002 0.000001 0.000001 0.000040 0.000044 -0.000028 0.000002 -0.000001 -0.000001 0.000007 -0.000009 0.000015 0.000002 -0.000001 0.000001 -11.289975 -0.000027 -0.000011 -11.336842 7.202435 21.894192 0.000001 -0.000084 -38.200329 -1.266931 0.293088 13.023534 -0.000001 -0.000008 -39.900856 -15.211893 -4.890644 13.219173 0.000019 -15.261637 0.000035 2.041197 1.277027 -15.730880 0.000010 -7.370742 -0.000000 0.000002 -0.000000 0.000001 -0.000003 0.000001 -0.000001 -0.000000 -0.000000 0.000001 -0.000019 0.000001 0.000009 -0.000000 0.000001 0.000001 11.315657 -0.000053 0.000011 -8.344383 -8.689177 13.154367 -0.000019 -0.000015 -38.200356 1.411097 -0.586987 22.581690 0.000008 -0.000111 -39.900871 0.512165 5.811514 12.218391 -0.000031 -15.261630 0.000011 -1.568279 -0.944756 -19.309508 -0.000031 -7.539917 0.000002 0.000000 0.000000 -0.000000 0.000001 -0.000061 0.000001 -0.000000 -0.000000 0.000001 -0.000001 0.000000 0.000001 0.000000 -0.000001 0.000001 
